# xmcd
#
# Track frame offsets: 
#        150
#        15477
#        29612
#        50925
#        63357
#        85095
#        103282
#        121032
#        135902
#        150577
#
# Disc length: 2240 seconds
#
# Revision: 1
# Processed by: cddbd v1.5.1PL0 Copyright (c) Steve Scherf et al.
# Submitted via: ExactAudioCopy v0.95b1
#
DISCID=7b08be0a
DTITLE=Johnny Tucker and James Thomas - Stranded
DYEAR=1997
DGENRE=Blues
TTITLE0=Someday You'll Have The Blues
TTITLE1=Help Now
TTITLE2=Long Gone
TTITLE3=Lawdy Miss Clawdy
TTITLE4=Mustang Sally
TTITLE5=Stranded
TTITLE6=Wild Streak
TTITLE7=Can't Stand it
TTITLE8=Hey Baby
TTITLE9=No More Doggin'
EXTD=
EXTT0=
EXTT1=
EXTT2=
EXTT3=
EXTT4=
EXTT5=
EXTT6=
EXTT7=
EXTT8=
EXTT9=
PLAYORDER=
